<?xml version="1.0" encoding="UTF-8" standalone="no"?>
<!DOCTYPE svg PUBLIC "-//W3C//DTD SVG 1.1//EN"
 "http://www.w3.org/Graphics/SVG/1.1/DTD/svg11.dtd">
<!-- Generated by graphviz version 2.40.1 (20161225.0304)
 -->
<!-- Title: %3 Pages: 1 -->
<svg width="410pt" height="564pt"
 viewBox="0.00 0.00 410.00 564.00" xmlns="http://www.w3.org/2000/svg" xmlns:xlink="http://www.w3.org/1999/xlink">
<g id="graph0" class="graph" transform="scale(1 1) rotate(0) translate(4 560)">
<title>%3</title>
<polygon fill="#ffffff" stroke="transparent" points="-4,4 -4,-560 406,-560 406,4 -4,4"/>
<g id="clust2" class="cluster">
<title>cluster[root] aws_instance.instance_var_</title>
</g>
<g id="clust3" class="cluster">
<title>cluster[root] aws_security_group.instance_var_</title>
</g>
<g id="clust4" class="cluster">
<title>cluster[root] aws_security_group_rule.ssh_inbound_var_</title>
</g>
<g id="clust5" class="cluster">
<title>cluster[root] provider.aws_var_</title>
</g>
<g id="clust6" class="cluster">
<title>cluster[root] meta.count&#45;boundary (count boundary fixup)_output_[root] aws_instance.instance</title>
</g>
<!-- [root] aws_instance.instance -->
<g id="node_0" class="node">
<title>[root] aws_instance.instance</title>
<polygon fill="none" stroke="#000000" points="231,-322 231,-337 301,-337 301,-322 231,-322"/>
<text text-anchor="start" x="234" y="-327.6" font-family="courier new" font-size="8.00" fill="#000000">aws_instance</text>
<polygon fill="none" stroke="#000000" points="231,-307 231,-322 301,-322 301,-307 231,-307"/>
<text text-anchor="start" x="244.5" y="-312.6" font-family="courier new" font-size="8.00" fill="#000000">instance</text>
</g>
<!-- [root] aws_security_group.instance -->
<g id="node_1" class="node">
<title>[root] aws_security_group.instance</title>
<polygon fill="none" stroke="#000000" points="120,-250 120,-265 221,-265 221,-250 120,-250"/>
<text text-anchor="start" x="123" y="-255.6" font-family="courier new" font-size="8.00" fill="#000000">aws_security_group</text>
<polygon fill="none" stroke="#000000" points="120,-235 120,-250 221,-250 221,-235 120,-235"/>
<text text-anchor="start" x="149" y="-240.6" font-family="courier new" font-size="8.00" fill="#000000">instance</text>
</g>
<!-- [root] aws_instance.instance&#45;&gt;[root] aws_security_group.instance -->
<g id="edge_0" class="edge">
<title>[root] aws_instance.instance&#45;&gt;[root] aws_security_group.instance</title>
<path fill="none" stroke="#000000" d="M241.7751,-303.8314C229.8372,-294.8779 215.2744,-283.9558 202.394,-274.2955"/>
<polygon fill="#000000" stroke="#000000" points="204.3171,-271.3629 194.2171,-268.1628 200.1171,-276.9629 204.3171,-271.3629"/>
</g>
<!-- [root] data.aws_ami.ubuntu -->
<g id="node_3" class="node">
<title>[root] data.aws_ami.ubuntu</title>
<polygon fill="none" stroke="#000000" points="245,-250 245,-265 288,-265 288,-250 245,-250"/>
<text text-anchor="start" x="248" y="-255.6" font-family="courier new" font-size="8.00" fill="#000000">aws_ami</text>
<polygon fill="none" stroke="#000000" points="245,-235 245,-250 288,-250 288,-235 245,-235"/>
<text text-anchor="start" x="250.5" y="-240.6" font-family="courier new" font-size="8.00" fill="#000000">ubuntu</text>
</g>
<!-- [root] aws_instance.instance&#45;&gt;[root] data.aws_ami.ubuntu -->
<g id="edge_1" class="edge">
<title>[root] aws_instance.instance&#45;&gt;[root] data.aws_ami.ubuntu</title>
<path fill="none" stroke="#000000" d="M266,-303.8314C266,-296.131 266,-286.9743 266,-278.4166"/>
<polygon fill="#000000" stroke="#000000" points="269.5001,-278.4132 266,-268.4133 262.5001,-278.4133 269.5001,-278.4132"/>
</g>
<!-- [root] var.instance_type -->
<g id="node_5" class="node">
<title>[root] var.instance_type</title>
<polygon fill="none" stroke="#000000" points="312,-250 312,-265 387,-265 387,-250 312,-250"/>
<text text-anchor="start" x="341.5" y="-255.6" font-family="courier new" font-size="8.00" fill="#000000">var</text>
<polygon fill="none" stroke="#000000" points="312,-235 312,-250 387,-250 387,-235 312,-235"/>
<text text-anchor="start" x="315" y="-240.6" font-family="courier new" font-size="8.00" fill="#000000">instance_type</text>
</g>
<!-- [root] aws_instance.instance&#45;&gt;[root] var.instance_type -->
<g id="edge_2" class="edge">
<title>[root] aws_instance.instance&#45;&gt;[root] var.instance_type</title>
<path fill="none" stroke="#000000" d="M286.9444,-303.8314C297.0691,-295.0485 309.3777,-284.3712 320.3548,-274.8489"/>
<polygon fill="#000000" stroke="#000000" points="322.8019,-277.3595 328.0623,-268.1628 318.2149,-272.0718 322.8019,-277.3595"/>
</g>
<!-- [root] provider.aws -->
<g id="node_4" class="node">
<title>[root] provider.aws</title>
<polygon fill="none" stroke="#000000" points="230,-178 230,-193 279,-193 279,-178 230,-178"/>
<text text-anchor="start" x="233" y="-183.6" font-family="courier new" font-size="8.00" fill="#000000">provider</text>
<polygon fill="none" stroke="#000000" points="230,-163 230,-178 279,-178 279,-163 230,-163"/>
<text text-anchor="start" x="246.5" y="-168.6" font-family="courier new" font-size="8.00" fill="#000000">aws</text>
</g>
<!-- [root] aws_security_group.instance&#45;&gt;[root] provider.aws -->
<g id="edge_5" class="edge">
<title>[root] aws_security_group.instance&#45;&gt;[root] provider.aws</title>
<path fill="none" stroke="#000000" d="M191.1967,-231.8314C201.4434,-223.0485 213.9003,-212.3712 225.0097,-202.8489"/>
<polygon fill="#000000" stroke="#000000" points="227.4952,-205.3282 232.81,-196.1628 222.9397,-200.0134 227.4952,-205.3282"/>
</g>
<!-- [root] var.name -->
<g id="node_8" class="node">
<title>[root] var.name</title>
<polygon fill="none" stroke="#000000" points="156,-178 156,-193 184,-193 184,-178 156,-178"/>
<text text-anchor="start" x="162" y="-183.6" font-family="courier new" font-size="8.00" fill="#000000">var</text>
<polygon fill="none" stroke="#000000" points="156,-163 156,-178 184,-178 184,-163 156,-163"/>
<text text-anchor="start" x="159" y="-168.6" font-family="courier new" font-size="8.00" fill="#000000">name</text>
</g>
<!-- [root] aws_security_group.instance&#45;&gt;[root] var.name -->
<g id="edge_6" class="edge">
<title>[root] aws_security_group.instance&#45;&gt;[root] var.name</title>
<path fill="none" stroke="#000000" d="M170,-231.8314C170,-224.131 170,-214.9743 170,-206.4166"/>
<polygon fill="#000000" stroke="#000000" points="173.5001,-206.4132 170,-196.4133 166.5001,-206.4133 173.5001,-206.4132"/>
</g>
<!-- [root] aws_security_group_rule.ssh_inbound -->
<g id="node_2" class="node">
<title>[root] aws_security_group_rule.ssh_inbound</title>
<polygon fill="none" stroke="#000000" points="82,-322 82,-337 209,-337 209,-322 82,-322"/>
<text text-anchor="start" x="85" y="-327.6" font-family="courier new" font-size="8.00" fill="#000000">aws_security_group_rule</text>
<polygon fill="none" stroke="#000000" points="82,-307 82,-322 209,-322 209,-307 82,-307"/>
<text text-anchor="start" x="116.5" y="-312.6" font-family="courier new" font-size="8.00" fill="#000000">ssh_inbound</text>
</g>
<!-- [root] aws_security_group_rule.ssh_inbound&#45;&gt;[root] aws_security_group.instance -->
<g id="edge_9" class="edge">
<title>[root] aws_security_group_rule.ssh_inbound&#45;&gt;[root] aws_security_group.instance</title>
<path fill="none" stroke="#000000" d="M151.3086,-303.8314C154.0117,-296.0463 157.2316,-286.7729 160.231,-278.1347"/>
<polygon fill="#000000" stroke="#000000" points="163.6327,-279.0081 163.6065,-268.4133 157.02,-276.7119 163.6327,-279.0081"/>
</g>
<!-- [root] var.ssh_cidr_blocks -->
<g id="node_11" class="node">
<title>[root] var.ssh_cidr_blocks</title>
<polygon fill="none" stroke="#000000" points="17,-250 17,-265 102,-265 102,-250 17,-250"/>
<text text-anchor="start" x="51.5" y="-255.6" font-family="courier new" font-size="8.00" fill="#000000">var</text>
<polygon fill="none" stroke="#000000" points="17,-235 17,-250 102,-250 102,-235 17,-235"/>
<text text-anchor="start" x="20" y="-240.6" font-family="courier new" font-size="8.00" fill="#000000">ssh_cidr_blocks</text>
</g>
<!-- [root] aws_security_group_rule.ssh_inbound&#45;&gt;[root] var.ssh_cidr_blocks -->
<g id="edge_10" class="edge">
<title>[root] aws_security_group_rule.ssh_inbound&#45;&gt;[root] var.ssh_cidr_blocks</title>
<path fill="none" stroke="#000000" d="M123.2986,-303.8314C112.8079,-295.0485 100.0545,-284.3712 88.6806,-274.8489"/>
<polygon fill="#000000" stroke="#000000" points="90.6089,-271.8986 80.6945,-268.1628 86.1153,-277.2659 90.6089,-271.8986"/>
</g>
<!-- [root] data.aws_ami.ubuntu&#45;&gt;[root] provider.aws -->
<g id="edge_11" class="edge">
<title>[root] data.aws_ami.ubuntu&#45;&gt;[root] provider.aws</title>
<path fill="none" stroke="#000000" d="M262.9719,-231.8314C261.6885,-224.131 260.1624,-214.9743 258.7361,-206.4166"/>
<polygon fill="#000000" stroke="#000000" points="262.1653,-205.7018 257.0689,-196.4133 255.2606,-206.8526 262.1653,-205.7018"/>
</g>
<!-- [root] var.aws_region -->
<g id="node_15" class="node">
<title>[root] var.aws_region</title>
<polygon fill="none" stroke="#000000" points="225,-106 225,-121 284,-121 284,-106 225,-106"/>
<text text-anchor="start" x="246.5" y="-111.6" font-family="courier new" font-size="8.00" fill="#000000">var</text>
<polygon fill="none" stroke="#000000" points="225,-91 225,-106 284,-106 284,-91 225,-91"/>
<text text-anchor="start" x="228" y="-96.6" font-family="courier new" font-size="8.00" fill="#000000">aws_region</text>
</g>
<!-- [root] provider.aws&#45;&gt;[root] var.aws_region -->
<g id="edge_17" class="edge">
<title>[root] provider.aws&#45;&gt;[root] var.aws_region</title>
<path fill="none" stroke="#000000" d="M254,-159.8314C254,-152.131 254,-142.9743 254,-134.4166"/>
<polygon fill="#000000" stroke="#000000" points="257.5001,-134.4132 254,-124.4133 250.5001,-134.4133 257.5001,-134.4132"/>
</g>
<!-- [root] meta.count&#45;boundary (count boundary fixup) -->
<g id="node_12" class="node">
<title>[root] meta.count&#45;boundary (count boundary fixup)</title>
<polygon fill="none" stroke="#000000" points="159,-466 159,-481 239,-481 239,-466 159,-466"/>
<text text-anchor="start" x="188" y="-471.6" font-family="courier new" font-size="8.00" fill="#000000">meta</text>
<polygon fill="none" stroke="#000000" points="159,-451 159,-466 239,-466 239,-451 159,-451"/>
<text text-anchor="start" x="162" y="-456.6" font-family="courier new" font-size="8.00" fill="#000000">count&#45;boundary</text>
</g>
<!-- [root] meta.count&#45;boundary (count boundary fixup)&#45;&gt;[root] aws_security_group_rule.ssh_inbound -->
<g id="edge_12" class="edge">
<title>[root] meta.count&#45;boundary (count boundary fixup)&#45;&gt;[root] aws_security_group_rule.ssh_inbound</title>
<path fill="none" stroke="#000000" d="M177.5708,-447.856C169.8118,-440.0919 161.7881,-430.4152 157,-420 146.9255,-398.0856 144.3005,-370.6543 143.9795,-350.3915"/>
<polygon fill="#000000" stroke="#000000" points="147.4797,-350.2418 143.9997,-340.2348 140.4797,-350.2277 147.4797,-350.2418"/>
</g>
<!-- [root] output.private_ip -->
<g id="node_13" class="node">
<title>[root] output.private_ip</title>
<polygon fill="none" stroke="#000000" points="170,-394 170,-409 229,-409 229,-394 170,-394"/>
<text text-anchor="start" x="183.5" y="-399.6" font-family="courier new" font-size="8.00" fill="#000000">output</text>
<polygon fill="none" stroke="#000000" points="170,-379 170,-394 229,-394 229,-379 170,-379"/>
<text text-anchor="start" x="173" y="-384.6" font-family="courier new" font-size="8.00" fill="#000000">private_ip</text>
</g>
<!-- [root] meta.count&#45;boundary (count boundary fixup)&#45;&gt;[root] output.private_ip -->
<g id="edge_13" class="edge">
<title>[root] meta.count&#45;boundary (count boundary fixup)&#45;&gt;[root] output.private_ip</title>
<path fill="none" stroke="#000000" d="M199,-447.8314C199,-440.131 199,-430.9743 199,-422.4166"/>
<polygon fill="#000000" stroke="#000000" points="202.5001,-422.4132 199,-412.4133 195.5001,-422.4133 202.5001,-422.4132"/>
</g>
<!-- [root] provider.aws (close) -->
<g id="node_14" class="node">
<title>[root] provider.aws (close)</title>
<polygon fill="none" stroke="#000000" points="250,-394 250,-409 299,-409 299,-394 250,-394"/>
<text text-anchor="start" x="253" y="-399.6" font-family="courier new" font-size="8.00" fill="#000000">provider</text>
<polygon fill="none" stroke="#000000" points="250,-379 250,-394 299,-394 299,-379 250,-379"/>
<text text-anchor="start" x="266.5" y="-384.6" font-family="courier new" font-size="8.00" fill="#000000">aws</text>
</g>
<!-- [root] provider.aws (close)&#45;&gt;[root] aws_instance.instance -->
<g id="edge_15" class="edge">
<title>[root] provider.aws (close)&#45;&gt;[root] aws_instance.instance</title>
<path fill="none" stroke="#000000" d="M271.9813,-375.8314C271.1257,-368.131 270.1083,-358.9743 269.1574,-350.4166"/>
<polygon fill="#000000" stroke="#000000" points="272.6289,-349.9656 268.0459,-340.4133 265.6717,-350.7386 272.6289,-349.9656"/>
</g>
<!-- [root] provider.aws (close)&#45;&gt;[root] aws_security_group_rule.ssh_inbound -->
<g id="edge_16" class="edge">
<title>[root] provider.aws (close)&#45;&gt;[root] aws_security_group_rule.ssh_inbound</title>
<path fill="none" stroke="#000000" d="M252.4822,-375.9555C248.7532,-373.1487 244.8384,-370.3909 241,-368 227.3597,-359.5037 211.9101,-351.4721 197.4539,-344.5698"/>
<polygon fill="#000000" stroke="#000000" points="198.6673,-341.2734 188.1266,-340.2035 195.6995,-347.6131 198.6673,-341.2734"/>
</g>
<!-- [root] root -->
<g id="node_16" class="node">
<title>[root] root</title>
<polygon fill="none" stroke="#000000" points="270,-556 196,-556 196,-520 270,-520 270,-556"/>
<text text-anchor="middle" x="233" y="-536.1" font-family="courier new" font-size="8.00" fill="#000000">[root] root</text>
</g>
<!-- [root] root&#45;&gt;[root] meta.count&#45;boundary (count boundary fixup) -->
<g id="edge_18" class="edge">
<title>[root] root&#45;&gt;[root] meta.count&#45;boundary (count boundary fixup)</title>
<path fill="none" stroke="#000000" d="M224.4204,-519.8314C220.6642,-511.8771 216.1743,-502.369 212.0202,-493.5723"/>
<polygon fill="#000000" stroke="#000000" points="215.1301,-491.9612 207.6952,-484.4133 208.8004,-494.9503 215.1301,-491.9612"/>
</g>
<!-- [root] root&#45;&gt;[root] provider.aws (close) -->
<g id="edge_19" class="edge">
<title>[root] root&#45;&gt;[root] provider.aws (close)</title>
<path fill="none" stroke="#000000" d="M238.1927,-519.7623C245.2166,-495.0928 257.8108,-450.8598 266.0354,-421.9731"/>
<polygon fill="#000000" stroke="#000000" points="269.4772,-422.6658 268.8495,-412.0896 262.7448,-420.7489 269.4772,-422.6658"/>
</g>
<!-- [root] var.ssh_key_name -->
<g id="node_6" class="node">
<title>[root] var.ssh_key_name</title>
<polygon fill="none" stroke="#000000" points="314,-178 314,-193 384,-193 384,-178 314,-178"/>
<text text-anchor="start" x="341" y="-183.6" font-family="courier new" font-size="8.00" fill="#000000">var</text>
<polygon fill="none" stroke="#000000" points="314,-163 314,-178 384,-178 384,-163 314,-163"/>
<text text-anchor="start" x="317" y="-168.6" font-family="courier new" font-size="8.00" fill="#000000">ssh_key_name</text>
</g>
<!-- [root] var.instance_type&#45;&gt;[root] var.ssh_key_name -->
<g id="edge_20" class="edge">
<title>[root] var.instance_type&#45;&gt;[root] var.ssh_key_name</title>
<path fill="none" stroke="#000000" stroke-dasharray="5,2" d="M349,-231.8314C349,-221 349,-207.2876 349,-196.4133"/>
</g>
<!-- [root] var.subnet_id -->
<g id="node_7" class="node">
<title>[root] var.subnet_id</title>
<polygon fill="none" stroke="#000000" points="322,-106 322,-121 376,-121 376,-106 322,-106"/>
<text text-anchor="start" x="341" y="-111.6" font-family="courier new" font-size="8.00" fill="#000000">var</text>
<polygon fill="none" stroke="#000000" points="322,-91 322,-106 376,-106 376,-91 322,-91"/>
<text text-anchor="start" x="325" y="-96.6" font-family="courier new" font-size="8.00" fill="#000000">subnet_id</text>
</g>
<!-- [root] var.ssh_key_name&#45;&gt;[root] var.subnet_id -->
<g id="edge_21" class="edge">
<title>[root] var.ssh_key_name&#45;&gt;[root] var.subnet_id</title>
<path fill="none" stroke="#000000" stroke-dasharray="5,2" d="M349,-159.8314C349,-149 349,-135.2876 349,-124.4133"/>
</g>
<!-- [root] var.tags -->
<g id="node_9" class="node">
<title>[root] var.tags</title>
<polygon fill="none" stroke="#000000" points="156,-106 156,-121 184,-121 184,-106 156,-106"/>
<text text-anchor="start" x="162" y="-111.6" font-family="courier new" font-size="8.00" fill="#000000">var</text>
<polygon fill="none" stroke="#000000" points="156,-91 156,-106 184,-106 184,-91 156,-91"/>
<text text-anchor="start" x="159" y="-96.6" font-family="courier new" font-size="8.00" fill="#000000">tags</text>
</g>
<!-- [root] var.name&#45;&gt;[root] var.tags -->
<g id="edge_22" class="edge">
<title>[root] var.name&#45;&gt;[root] var.tags</title>
<path fill="none" stroke="#000000" stroke-dasharray="5,2" d="M170,-159.8314C170,-149 170,-135.2876 170,-124.4133"/>
</g>
<!-- [root] var.vpc_id -->
<g id="node_10" class="node">
<title>[root] var.vpc_id</title>
<polygon fill="none" stroke="#000000" points="151,-34 151,-49 189,-49 189,-34 151,-34"/>
<text text-anchor="start" x="162" y="-39.6" font-family="courier new" font-size="8.00" fill="#000000">var</text>
<polygon fill="none" stroke="#000000" points="151,-19 151,-34 189,-34 189,-19 151,-19"/>
<text text-anchor="start" x="154" y="-24.6" font-family="courier new" font-size="8.00" fill="#000000">vpc_id</text>
</g>
<!-- [root] var.tags&#45;&gt;[root] var.vpc_id -->
<g id="edge_23" class="edge">
<title>[root] var.tags&#45;&gt;[root] var.vpc_id</title>
<path fill="none" stroke="#000000" stroke-dasharray="5,2" d="M170,-87.8314C170,-77 170,-63.2876 170,-52.4133"/>
</g>
<!-- [root] output.private_ip&#45;&gt;[root] aws_instance.instance -->
<g id="edge_14" class="edge">
<title>[root] output.private_ip&#45;&gt;[root] aws_instance.instance</title>
<path fill="none" stroke="#000000" d="M215.9069,-375.8314C223.7813,-367.3694 233.292,-357.1489 241.9013,-347.8971"/>
<polygon fill="#000000" stroke="#000000" points="244.6153,-350.1183 248.8654,-340.4133 239.4908,-345.3497 244.6153,-350.1183"/>
</g>
</g>
</svg>

