<?xml version="1.0" standalone="no"?>
<!DOCTYPE svg PUBLIC "-//W3C//DTD SVG 1.1//EN"
  "http://www.w3.org/Graphics/SVG/1.1/DTD/svg11.dtd">
<svg version="1.1" xmlns="http://www.w3.org/2000/svg" xmlns:xlink="http://www.w3.org/1999/xlink" width="1280" height="720" viewBox="-1679.6111111111113 -769 1806.2222222222224 1016" id="ccdiagram"><filter id="grayscale"><feColorMatrix type="matrix" values="0.3333 0.3333 0.3333 0 0 0.3333 0.3333 0.3333 0 0 0.3333 0.3333 0.3333 0 0 0 0 0 1 0"></feColorMatrix></filter><defs><style type="text/css">@import url(&#x27;https://fonts.googleapis.com/css?family=Open+Sans:400,700|Inconsolata:400&#x27;);</style></defs><g>0<g pointer-events="auto"></g>0<g pointer-events="auto"><g opacity="1"><g id="3926ccbc-4978-4eb4-a39f-fa3bc33152b1"><svg x="-640" y="-92" overflow="visible"><polygon points="0 0, 116 67, 52 104, -64 37" fill="#f5b720"></polygon><polygon points="0 0, 116 67, 52 104, -64 37" fill="none" stroke-width="20" stroke="#f5b720" opacity="1"></polygon><g cursor="nwse-resize"><polygon points="0 0, -19 -11, 13 -30, -83 -11, -115 44, -83 26, -64 37" fill="#f5b720"></polygon><polygon points="116 67, 135 78, 167 60, 135 115, 39 134, 71 115, 52 104" fill="#f5b720"></polygon></g></svg></g></g><g opacity="1"><g id="7bfc7c21-d1a2-4905-9f47-baf880c91fc3"><svg x="-1185" y="-407" overflow="visible"><polygon points="0 0, 417 241, 353 278, -64 37" fill="#f5b720"></polygon><polygon points="0 0, 417 241, 353 278, -64 37" fill="none" stroke-width="20" stroke="#f5b720" opacity="1"></polygon><g cursor="nwse-resize"><polygon points="0 0, -19 -11, 13 -30, -83 -11, -115 44, -83 26, -64 37" fill="#f5b720"></polygon><polygon points="417 241, 436 252, 468 234, 436 289, 340 308, 372 289, 353 278" fill="#f5b720"></polygon></g></svg></g></g></g><g pointer-events="none"></g><g pointer-events="auto"><g><g><g cursor="cell"><line x1="-1111" y1="-413" x2="-1105" y2="-417" stroke="red" stroke-width="8" opacity="0"></line><line x1="-1111" y1="-413" x2="-1105" y2="-417" stroke="#000000" stroke-width="2" stroke-linecap="none"></line><polygon points="-1121 -407, -1095 -413, -1108 -415, -1111 -422, -1121 -407" stroke-linejoin="round" fill="#000000" stroke="#000000" stroke-width="1"></polygon></g><g cursor="cell"><line x1="-1073" y1="-417" x2="-1105" y2="-417" stroke="red" stroke-width="8" opacity="0"></line><line x1="-1073" y1="-417" x2="-1105" y2="-417" stroke="#000000" stroke-width="2" stroke-linecap="round"></line></g><g cursor="cell"><line x1="-934" y1="-311" x2="-912" y2="-324" stroke="red" stroke-width="8" opacity="0"></line><line x1="-934" y1="-311" x2="-912" y2="-324" stroke="#000000" stroke-width="2" stroke-linecap="none"></line><polygon points="-944 -305, -918 -311, -932 -312, -935 -320, -944 -305" stroke-linejoin="round" fill="#000000" stroke="#000000" stroke-width="1"></polygon></g><g cursor="cell"><line x1="-758" y1="-209" x2="-751" y2="-212" stroke="red" stroke-width="8" opacity="0"></line><line x1="-758" y1="-209" x2="-751" y2="-212" stroke="#000000" stroke-width="2" stroke-linecap="none"></line><polygon points="-767 -203, -742 -208, -755 -210, -758 -218, -767 -203" stroke-linejoin="round" fill="#000000" stroke="#000000" stroke-width="1"></polygon></g><g cursor="cell"><line x1="-751" y1="-231" x2="-751" y2="-212" stroke="red" stroke-width="8" opacity="0"></line><line x1="-751" y1="-231" x2="-751" y2="-212" stroke="#000000" stroke-width="2" stroke-linecap="round"></line></g><g cursor="cell"><line x1="-1073" y1="-417" x2="-751" y2="-231" stroke="red" stroke-width="8" opacity="0"></line><line x1="-1073" y1="-417" x2="-751" y2="-231" stroke="#000000" stroke-width="2" stroke-linecap="round"></line></g><g cursor="cell"><line x1="-400" y1="-435" x2="-752" y2="-231" stroke="red" stroke-width="8" opacity="0"></line><line x1="-400" y1="-435" x2="-752" y2="-231" stroke="#000000" stroke-width="2" stroke-linecap="round"></line></g></g></g><g><g><g cursor="cell"><line x1="-400" y1="-435" x2="-547" y2="-85" stroke="red" stroke-width="8" opacity="0"></line><line x1="-400" y1="-435" x2="-547" y2="-85" stroke="#000000" stroke-width="2" stroke-linecap="round"></line><polygon points="-550 -78, -533 -90, -546 -87, -555 -93, -550 -78" stroke-linejoin="round" fill="#000000" stroke="#000000" stroke-width="1"></polygon></g></g></g><g><g cursor="cell"><line x1="-701" y1="-664" x2="-425" y2="-487" stroke="red" stroke-width="8" opacity="0"></line><line x1="-701" y1="-664" x2="-425" y2="-487" stroke="#000000" stroke-width="2" stroke-linecap="round"></line><polygon points="-416 -481, -424 -496, -428 -489, -441 -487, -416 -481" stroke-linejoin="round" fill="#000000" stroke="#000000" stroke-width="1"></polygon></g></g></g><g pointer-events="auto"><g opacity="1"><g id="82623ed9-46a6-4d41-80e8-fafd812890e2" transform="translate(0 0)"><svg x="-777" y="-737" height="93.28" width="81" viewBox="0 0 21.431 24.68"><path d="M.268 5.102l12.537 7.238 5.224-.603 3.134-9.048L16.984.276 1.313 2.086z" fill="#ececed" fill-rule="evenodd"></path><path d="M.268 5.102v12.064l12.537 7.238V12.34z" fill="#d2d2d4" fill-rule="evenodd"></path><path d="M12.805 12.34l5.224-.603v12.064l-5.224.603z" fill="#d2d2d4" fill-rule="evenodd"></path><path d="M18.029 11.737l3.134-9.048v12.064l-3.134 9.048z" fill="#b8b8bb" fill-rule="evenodd"></path><path d="M.268 5.102l12.537 7.238 5.224-.603 3.134-9.048M18.029 11.737v12.064M12.805 12.34v12.064" fill="none" stroke="#83838a" stroke-width=".265"></path><path d="M.268 17.166l12.537 7.238 5.224-.603 3.134-9.048V2.689L16.984.276 1.313 2.086.268 5.102z" fill="none" stroke="#000000" stroke-width=".529"></path><path d="M16.852 3.319c-.637-.01-1.269-.156-1.755-.437-.486-.28-.738-.645-.756-1.013l-3.498.035c.11.43-.121.884-.694 1.215-.364.21-.812.34-1.282.391-.625.068-1.225.242-1.709.521-1.273.735-1.277 1.926-.013 2.664.733.423 1.145.956 1.247 1.509.957.059 1.88.296 2.613.72 1.279.73 3.34.727 4.614-.008.483-.28.784-.626.902-.987.089-.271.315-.53.678-.74.573-.33 1.36-.464 2.104-.4l.061-2.02c-.637-.01-1.269-.156-1.755-.437-.486-.28-.739-.645-.757-1.013z" fill="none"></path><path d="M17.277 4.302c.467.27 1.056.427 1.664.471l-.05 1.693c-.73-.014-1.466.14-2.023.462-.404.234-.655.522-.754.824-.107.33-.381.647-.823.902-1.16.671-3.041.674-4.207.007-.722-.418-1.619-.665-2.555-.75-.144-.54-.573-1.06-1.296-1.477C6.081 5.759 6.086 4.672 7.247 4c.441-.256.989-.414 1.559-.476.522-.057 1.02-.203 1.424-.436.557-.322.823-.749.8-1.17l2.926-.03c.076.352.348.693.815.963.473.274 1.071.432 1.688.473.072.357.345.703.818.976z" fill="#4286c5" fill-rule="evenodd"></path><g style="line-height:0%" fill="#fff" font-family="Interstate" font-size="5.176" stroke-width=".268"><path style="line-height:1.25;-inkscape-font-specification:Interstate" d="M11.246 3.567l1.863 1.078-.399.231-1.429-.826-.86.497q.139.04.259.09.122.049.225.108.588.34.609.725.021.385-.529.703-.566.327-1.233.305-.665-.023-1.307-.394-.22-.127-.414-.282-.19-.154-.36-.339l.478-.276q.096.19.265.352.17.163.421.309.407.235.858.249.45.013.818-.199.366-.212.343-.473-.024-.26-.43-.496-.19-.11-.423-.196-.23-.084-.517-.147zM14.127 7.104q.268.239.228.482-.038.245-.376.44-.52.3-1.16.259-.642-.042-1.3-.423-.221-.128-.412-.29-.19-.158-.352-.353l.458-.265q.082.18.259.35.176.17.432.319.446.258.855.29.412.035.748-.16.31-.179.265-.406-.04-.227-.428-.451l-.408-.237.39-.225.427.247q.35.202.675.23.326.026.59-.127.27-.156.22-.35-.044-.195-.401-.401-.195-.113-.461-.218-.266-.104-.623-.208l.423-.244q.346.112.618.227.275.115.484.236.54.313.609.638.07.323-.348.565-.291.168-.66.189-.367.019-.752-.114z"></path></g></svg></g></g><g opacity="1"><g id="fe981dea-9e0b-4c8e-84c2-46a62423efd3" transform="translate(0 0)"><svg x="-416" y="-518" height="94" width="97" fill-rule="evenodd"><path d="M0 18.6v18.6l32.333 18.6h32.334L97 37.2V18.6L64.667 0H32.333L0 18.6z" fill="#ececed"></path><path d="M64.667 55.8L97 37.2v37.2L64.667 93V55.8z" fill="#b8b8bb"></path><path d="M32.333 55.8h32.334V93H32.333V55.8zM0 37.2v37.2L32.333 93V55.8L0 37.2z" fill="#d2d2d4"></path><g fill="none" stroke="#83838a" stroke-width="1.04"><path d="M.955 37.877L32.333 55.8h32.334l31.378-17.923M32.333 55.8v36.211M64.667 55.8v36.574"></path></g><path d="M97 18.6v55.8L64.667 93H32.333L0 74.4V18.6L32.333 0h32.334L97 18.6zM32.865 1.989L1.989 19.751v53.498l30.876 17.762h31.27l30.876-17.762V19.751L64.135 1.989h-31.27z" fill="#000000"></path><path d="M69.912 15.583c11.818 6.798 11.818 17.836 0 24.635-11.817 6.798-31.007 6.798-42.824 0-11.818-6.799-11.818-17.837 0-24.635 11.817-6.799 31.007-6.799 42.824 0z" fill="#4286c5"></path><path d="M49.584 14.774c1.824 1.049 1.824 2.753 0 3.802-1.824 1.05-4.786 1.05-6.61 0-1.824-1.049-1.824-2.753 0-3.802 1.824-1.05 4.786-1.05 6.61 0zM60.451 21.025c1.825 1.049 1.825 2.753 0 3.803-1.824 1.049-4.786 1.049-6.61 0-1.824-1.05-1.824-2.754 0-3.803s4.786-1.049 6.61 0zM71.319 27.276c1.824 1.05 1.824 2.754 0 3.803-1.825 1.049-4.787 1.049-6.611 0-1.824-1.049-1.824-2.753 0-3.803 1.824-1.049 4.786-1.049 6.611 0zM38.497 33.654c1.824 1.05 1.824 2.754 0 3.803-1.825 1.05-4.787 1.05-6.611 0-1.824-1.049-1.824-2.753 0-3.803 1.824-1.049 4.786-1.049 6.611 0z" fill="#fff"></path><path d="M47.458 15.878c.453.26.393.717-.133 1.02-.526.303-1.32.337-1.773.076-.452-.26-.392-.717.133-1.019.526-.303 1.321-.337 1.773-.077z" fill="#fff"></path><path d="M48.111 15.621c1.012.582 1.012 1.526 0 2.108-1.011.582-2.653.582-3.664 0-1.012-.582-1.012-1.526 0-2.108 1.011-.582 2.653-.582 3.664 0zM58.978 21.872c1.012.582 1.012 1.527 0 2.108-1.011.582-2.653.582-3.664 0-1.012-.581-1.012-1.526 0-2.108 1.011-.581 2.653-.581 3.664 0zM69.846 28.124c1.011.581 1.011 1.526 0 2.108-1.012.582-2.654.582-3.665 0-1.011-.582-1.011-1.527 0-2.108 1.011-.582 2.653-.582 3.665 0z" fill="#4286c5"></path><path d="M37.024 34.502c1.011.582 1.011 1.526 0 2.108-1.012.582-2.654.582-3.665 0-1.011-.582-1.011-1.526 0-2.108 1.011-.582 2.653-.582 3.665 0z" fill="#fff"></path><g fill="#fff"><path d="M52.301 25.172L37.719 33.56l.482.834 14.584-8.388-.484-.834z"></path><path d="M46.993 26.089l6.654-1.146-4.324 5.168c.189-1.691-.757-3.313-2.33-4.022z" stroke="#fff" stroke-width=".36"></path></g><g fill="#fff"><path d="M43.488 19.937l-6.057 13.797.886.387 6.056-13.798-.885-.386z"></path><path d="M39.76 23.812l4.676-4.854-.405 6.716c-.855-1.474-2.582-2.221-4.271-1.862z" stroke="#fff" stroke-width=".36"></path></g><g fill="#fff"><path d="M61.953 30.061l-23.985 3.483.14.955 23.985-3.486-.14-.952z"></path><path d="M56.68 28.957l6.608 1.387-5.936 3.209c.804-1.503.526-3.358-.672-4.596z" stroke="#fff" stroke-width=".36"></path></g><path d="M37.96 33.977l13.12-7.547M37.873 33.927l5.792-13.134M38.037 34.022l22.478-3.281" fill="#fff" stroke="#fff" stroke-width="1.93"></path></svg></g></g><g opacity="1"><g id="d90e48cd-a907-4f1c-99d9-403f1591edad" transform="translate(0 0)"><svg x="-1249" y="-444" height="111" width="128" fill-rule="evenodd"><path d="M64 74v37l64-37V37L64 74z" fill="#b8b8bb"></path><path d="M0 37v37l64 37V74L0 37z" fill="#d2d2d4"></path><path d="M0 37L64 0l64 37-64 37L0 37z" fill="#ececed"></path><path d="M64 73.407l62.111-35.86.514.889-62.487 36.078h-.276L.743 38.072l.514-.89L64 73.407z" fill="#83838a"></path><path d="M63.486 74h1.027v36h-1.027z" fill="#83838a"></path><path d="M128 37v37l-64 37L0 74V37L64 0l64 37zM2.054 38.185v34.63L64 108.627l61.946-35.812v-34.63L64 2.373 2.054 38.185z" fill="#000000"></path></svg><svg x="-1193" y="-427" width="60" height="35" style="overflow:visible;cursor:default"><rect transform="matrix(0.707 0.409 -0.707 0.409 0 0)" width="60" height="35" rx="5" ry="5" fill="#4286c5"></rect><text transform="matrix(0.707 0.409 -0.707 0.409 0 0)" font-family="Open Sans" font-size="20pt" text-anchor="middle" x="50%" y="75%" fill="#ffffff"><tspan>T2</tspan></text></svg></g></g><g opacity="1"><g id="bd47694d-cfa8-4284-858b-57d307dbca59" transform="translate(0 0)"><svg x="-1072" y="-342" height="111" width="128" fill-rule="evenodd"><path d="M64 74v37l64-37V37L64 74z" fill="#b8b8bb"></path><path d="M0 37v37l64 37V74L0 37z" fill="#d2d2d4"></path><path d="M0 37L64 0l64 37-64 37L0 37z" fill="#ececed"></path><path d="M64 73.407l62.111-35.86.514.889-62.487 36.078h-.276L.743 38.072l.514-.89L64 73.407z" fill="#83838a"></path><path d="M63.486 74h1.027v36h-1.027z" fill="#83838a"></path><path d="M128 37v37l-64 37L0 74V37L64 0l64 37zM2.054 38.185v34.63L64 108.627l61.946-35.812v-34.63L64 2.373 2.054 38.185z" fill="#000000"></path></svg><svg x="-1017" y="-325" width="60" height="35" style="overflow:visible;cursor:default"><rect transform="matrix(0.707 0.409 -0.707 0.409 0 0)" width="60" height="35" rx="5" ry="5" fill="#4286c5"></rect><text transform="matrix(0.707 0.409 -0.707 0.409 0 0)" font-family="Open Sans" font-size="20pt" text-anchor="middle" x="50%" y="75%" fill="#ffffff"><tspan>T2</tspan></text></svg></g></g><g opacity="1"><g id="1f14a5e6-eede-47ae-91eb-a3b0dfdfbf44" transform="translate(0 0)"><svg x="-895" y="-240" height="111" width="128" fill-rule="evenodd"><path d="M64 74v37l64-37V37L64 74z" fill="#b8b8bb"></path><path d="M0 37v37l64 37V74L0 37z" fill="#d2d2d4"></path><path d="M0 37L64 0l64 37-64 37L0 37z" fill="#ececed"></path><path d="M64 73.407l62.111-35.86.514.889-62.487 36.078h-.276L.743 38.072l.514-.89L64 73.407z" fill="#83838a"></path><path d="M63.486 74h1.027v36h-1.027z" fill="#83838a"></path><path d="M128 37v37l-64 37L0 74V37L64 0l64 37zM2.054 38.185v34.63L64 108.627l61.946-35.812v-34.63L64 2.373 2.054 38.185z" fill="#000000"></path></svg><svg x="-840" y="-223" width="60" height="35" style="overflow:visible;cursor:default"><rect transform="matrix(0.707 0.409 -0.707 0.409 0 0)" width="60" height="35" rx="5" ry="5" fill="#4286c5"></rect><text transform="matrix(0.707 0.409 -0.707 0.409 0 0)" font-family="Open Sans" font-size="20pt" text-anchor="middle" x="50%" y="75%" fill="#ffffff"><tspan>T2</tspan></text></svg></g></g><g opacity="1"><g id="92d1a1f5-e8d7-4e2c-b1c9-974a11ceaed1" transform="translate(0 0)"><svg x="-678" y="-115" height="111" width="128" fill-rule="evenodd"><path d="M64 74v37l64-37V37L64 74z" fill="#b8b8bb"></path><path d="M0 37v37l64 37V74L0 37z" fill="#d2d2d4"></path><path d="M0 37L64 0l64 37-64 37L0 37z" fill="#ececed"></path><path d="M64 73.407l62.111-35.86.514.889-62.487 36.078h-.276L.743 38.072l.514-.89L64 73.407z" fill="#83838a"></path><path d="M63.486 74h1.027v36h-1.027z" fill="#83838a"></path><path d="M128 37v37l-64 37L0 74V37L64 0l64 37zM2.054 38.185v34.63L64 108.627l61.946-35.812v-34.63L64 2.373 2.054 38.185z" fill="#000000"></path></svg><svg x="-623" y="-97" width="60" height="35" style="overflow:visible;cursor:default"><rect transform="matrix(0.707 0.409 -0.707 0.409 0 0)" width="60" height="35" rx="5" ry="5" fill="#4286c5"></rect><text transform="matrix(0.707 0.409 -0.707 0.409 0 0)" font-family="Open Sans" font-size="20pt" text-anchor="middle" x="50%" y="75%" fill="#ffffff"><tspan>T2</tspan></text></svg></g></g></g><g pointer-events="auto"></g><g pointer-events="auto"></g><g pointer-events="auto"><g opacity="1"><g id="a7264c59-b2cd-462a-b465-335900146d4d"><svg x="-840" y="-708" overflow="visible"><text stroke="#ffffff" stroke-width="4" font-family="Open Sans" y="36.5" font-size="25pt" fill="#f5b720" font-weight="bold" transform="matrix(0.707 0.409 -0.707 0.409 0 0)" xml:space="preserve"><tspan x="8" dy="0">DNS Records</tspan></text><text font-family="Open Sans" y="36.5" font-size="25pt" fill="#f5b720" font-weight="bold" transform="matrix(0.707 0.409 -0.707 0.409 0 0)" xml:space="preserve"><tspan x="8" dy="0">DNS Records</tspan></text></svg></g></g><g opacity="1"><g id="0e8a33c3-ebbe-4479-b7ec-13fd1ec82647"><svg x="-512" y="-500" overflow="visible"><text stroke="#ffffff" stroke-width="4" font-family="Open Sans" y="36.5" font-size="25pt" fill="#f5b720" font-weight="bold" transform="matrix(0.707 0.409 -0.707 0.409 0 0)" xml:space="preserve"><tspan x="8" dy="0">Load Balancer</tspan></text><text font-family="Open Sans" y="36.5" font-size="25pt" fill="#f5b720" font-weight="bold" transform="matrix(0.707 0.409 -0.707 0.409 0 0)" xml:space="preserve"><tspan x="8" dy="0">Load Balancer</tspan></text></svg></g></g><g opacity="1"><g id="f3f2703a-d6a4-455a-84a4-996c8aafdd20"><svg x="-1217" y="-342" overflow="visible"><text stroke="#ffffff" stroke-width="4" font-family="Open Sans" y="36.5" font-size="25pt" fill="#f5b720" font-weight="bold" transform="matrix(0.707 0.409 -0.707 0.409 0 0)" xml:space="preserve"><tspan x="8" dy="0">Clients Autoscaling Group</tspan></text><text font-family="Open Sans" y="36.5" font-size="25pt" fill="#f5b720" font-weight="bold" transform="matrix(0.707 0.409 -0.707 0.409 0 0)" xml:space="preserve"><tspan x="8" dy="0">Clients Autoscaling Group</tspan></text></svg></g></g><g opacity="1"><g id="2da5b970-d43f-45d1-bd4a-77162f894005"><svg x="-752" y="-65" overflow="visible"><text stroke="#ffffff" stroke-width="4" font-family="Open Sans" y="36.5" font-size="25pt" fill="#f5b720" font-weight="bold" transform="matrix(0.707 0.409 -0.707 0.409 0 0)" xml:space="preserve"><tspan x="8" dy="0">Server Instance</tspan><tspan x="8" dy="1.1em"> </tspan></text><text font-family="Open Sans" y="36.5" font-size="25pt" fill="#f5b720" font-weight="bold" transform="matrix(0.707 0.409 -0.707 0.409 0 0)" xml:space="preserve"><tspan x="8" dy="0">Server Instance</tspan><tspan x="8" dy="1.1em"> </tspan></text></svg></g></g></g></g></svg>